<?xml version="1.0" encoding="UTF-8" standalone="no"?>
<!DOCTYPE svg PUBLIC "-//W3C//DTD SVG 1.1//EN"
 "http://www.w3.org/Graphics/SVG/1.1/DTD/svg11.dtd">
<!-- Generated by graphviz version 2.50.0 (20211209.1537)
 -->
<!-- Title: g Pages: 1 -->
<svg width="250pt" height="260pt"
 viewBox="0.00 0.00 250.15 260.00" xmlns="http://www.w3.org/2000/svg" xmlns:xlink="http://www.w3.org/1999/xlink">
<g id="graph0" class="graph" transform="scale(1 1) rotate(0) translate(4 256)">
<title>g</title>
<g id="node1" class="node">
<title></title>
<ellipse fill="white" stroke="#666666" cx="3.5" cy="-126" rx="3.5" ry="3.5"/>
</g>
<!-- Alice.md -->
<g id="node2" class="node">
<title>Alice.md</title>
<g id="a_node2"><a xlink:href="Alice.md" xlink:title="Hello, **Alice**.">
<polygon fill="white" stroke="#b3b3b3" points="241.22,-252 156.49,-252 156.49,-216 241.22,-216 241.22,-252"/>
<text text-anchor="middle" x="198.86" y="-231" font-family="Helvetica,sans-Serif" font-size="10.00">Hello, **Alice**.</text>
</a>
</g>
</g>
<!-- &#45;&gt;Alice.md -->
<g id="edge1" class="edge">
<title>&#45;&gt;Alice.md</title>
<path fill="none" stroke="#999999" d="M6.94,-127.37C22.38,-135.99 107.35,-183.45 158.59,-212.06"/>
<polygon fill="#999999" stroke="#999999" points="165.28,-215.8 157.08,-215.09 162,-213.97 158.73,-212.14 158.73,-212.14 158.73,-212.14 162,-213.97 160.37,-209.2 165.28,-215.8 165.28,-215.8"/>
<text text-anchor="middle" x="81.28" y="-183" font-family="Helvetica,sans-Serif" font-size="10.00">Alice.md</text>
</g>
<!-- Bob.md -->
<g id="node3" class="node">
<title>Bob.md</title>
<g id="a_node3"><a xlink:href="Bob.md" xlink:title="Hello, **Bob**.">
<polygon fill="white" stroke="#b3b3b3" points="239.34,-144 158.38,-144 158.38,-108 239.34,-108 239.34,-144"/>
<text text-anchor="middle" x="198.86" y="-123" font-family="Helvetica,sans-Serif" font-size="10.00">Hello, **Bob**.</text>
</a>
</g>
</g>
<!-- &#45;&gt;Bob.md -->
<g id="edge2" class="edge">
<title>&#45;&gt;Bob.md</title>
<path fill="none" stroke="#999999" d="M7.23,-126C22.6,-126 99.39,-126 150.69,-126"/>
<polygon fill="#999999" stroke="#999999" points="158.38,-126 150.88,-129.38 154.63,-126 150.88,-126 150.88,-126 150.88,-126 154.63,-126 150.88,-122.63 158.38,-126 158.38,-126"/>
<text text-anchor="middle" x="81.28" y="-129" font-family="Helvetica,sans-Serif" font-size="10.00">Bob.md</text>
</g>
<!-- Carol.md -->
<g id="node4" class="node">
<title>Carol.md</title>
<g id="a_node4"><a xlink:href="Carol.md" xlink:title="Hello, **Carol**.">
<polygon fill="white" stroke="#b3b3b3" points="241.95,-36 155.77,-36 155.77,0 241.95,0 241.95,-36"/>
<text text-anchor="middle" x="198.86" y="-15" font-family="Helvetica,sans-Serif" font-size="10.00">Hello, **Carol**.</text>
</a>
</g>
</g>
<!-- &#45;&gt;Carol.md -->
<g id="edge3" class="edge">
<title>&#45;&gt;Carol.md</title>
<path fill="none" stroke="#999999" d="M6.94,-124.63C22.38,-116.01 107.35,-68.55 158.59,-39.94"/>
<polygon fill="#999999" stroke="#999999" points="165.28,-36.2 160.37,-42.8 162,-38.03 158.73,-39.86 158.73,-39.86 158.73,-39.86 162,-38.03 157.08,-36.91 165.28,-36.2 165.28,-36.2"/>
<text text-anchor="middle" x="81.28" y="-97" font-family="Helvetica,sans-Serif" font-size="10.00">Carol.md</text>
</g>
</g>
</svg>
