<?xml version="1.0" encoding="UTF-8" standalone="no"?>
<!DOCTYPE svg PUBLIC "-//W3C//DTD SVG 1.1//EN"
 "http://www.w3.org/Graphics/SVG/1.1/DTD/svg11.dtd">
<!-- Generated by graphviz version 2.50.0 (20211209.1537)
 -->
<!-- Title: g Pages: 1 -->
<svg width="218pt" height="260pt"
 viewBox="0.00 0.00 217.92 260.00" xmlns="http://www.w3.org/2000/svg" xmlns:xlink="http://www.w3.org/1999/xlink">
<g id="graph0" class="graph" transform="scale(1 1) rotate(0) translate(4 256)">
<title>g</title>
<g id="node1" class="node">
<title></title>
<ellipse fill="white" stroke="#666666" cx="3.5" cy="-126" rx="3.5" ry="3.5"/>
</g>
<!-- Alice -->
<g id="node2" class="node">
<title>Alice</title>
<g id="a_node2"><a xlink:href="Alice" xlink:title="Hello, Alice!">
<polygon fill="white" stroke="#b3b3b3" points="208.7,-252 140.11,-252 140.11,-216 208.7,-216 208.7,-252"/>
<text text-anchor="middle" x="174.41" y="-231" font-family="Helvetica,sans-Serif" font-size="10.00">Hello, Alice!</text>
</a>
</g>
</g>
<!-- &#45;&gt;Alice -->
<g id="edge1" class="edge">
<title>&#45;&gt;Alice</title>
<path fill="none" stroke="#999999" d="M6.89,-127.53C20.99,-136.54 94.29,-183.41 138.81,-211.88"/>
<polygon fill="#999999" stroke="#999999" points="145.16,-215.94 137.02,-214.74 142,-213.92 138.84,-211.9 138.84,-211.9 138.84,-211.9 142,-213.92 140.66,-209.05 145.16,-215.94 145.16,-215.94"/>
<text text-anchor="middle" x="72.95" y="-179" font-family="Helvetica,sans-Serif" font-size="10.00">Alice</text>
</g>
<!-- Bob -->
<g id="node3" class="node">
<title>Bob</title>
<g id="a_node3"><a xlink:href="Bob" xlink:title="Hello, Bob!">
<polygon fill="white" stroke="#b3b3b3" points="206.82,-144 141.99,-144 141.99,-108 206.82,-108 206.82,-144"/>
<text text-anchor="middle" x="174.41" y="-123" font-family="Helvetica,sans-Serif" font-size="10.00">Hello, Bob!</text>
</a>
</g>
</g>
<!-- &#45;&gt;Bob -->
<g id="edge2" class="edge">
<title>&#45;&gt;Bob</title>
<path fill="none" stroke="#999999" d="M7.15,-126C21.37,-126 89.52,-126 134.03,-126"/>
<polygon fill="#999999" stroke="#999999" points="141.78,-126 134.28,-129.38 138.03,-126 134.28,-126 134.28,-126 134.28,-126 138.03,-126 134.28,-122.63 141.78,-126 141.78,-126"/>
<text text-anchor="middle" x="72.95" y="-129" font-family="Helvetica,sans-Serif" font-size="10.00">Bob</text>
</g>
<!-- Carol -->
<g id="node4" class="node">
<title>Carol</title>
<g id="a_node4"><a xlink:href="Carol" xlink:title="Hello, Carol!">
<polygon fill="white" stroke="#b3b3b3" points="209.93,-36 138.89,-36 138.89,0 209.93,0 209.93,-36"/>
<text text-anchor="middle" x="174.41" y="-15" font-family="Helvetica,sans-Serif" font-size="10.00">Hello, Carol!</text>
</a>
</g>
</g>
<!-- &#45;&gt;Carol -->
<g id="edge3" class="edge">
<title>&#45;&gt;Carol</title>
<path fill="none" stroke="#999999" d="M6.89,-124.47C20.99,-115.46 94.29,-68.59 138.81,-40.12"/>
<polygon fill="#999999" stroke="#999999" points="145.16,-36.06 140.66,-42.95 142,-38.08 138.84,-40.1 138.84,-40.1 138.84,-40.1 142,-38.08 137.02,-37.26 145.16,-36.06 145.16,-36.06"/>
<text text-anchor="middle" x="72.95" y="-90" font-family="Helvetica,sans-Serif" font-size="10.00">Carol</text>
</g>
</g>
</svg>
