<?xml version="1.0" encoding="UTF-8" standalone="no"?>
<!DOCTYPE svg PUBLIC "-//W3C//DTD SVG 1.1//EN"
 "http://www.w3.org/Graphics/SVG/1.1/DTD/svg11.dtd">
<!-- Generated by graphviz version 2.50.0 (20211209.1537)
 -->
<!-- Title: g Pages: 1 -->
<svg width="359pt" height="260pt"
 viewBox="0.00 0.00 358.57 260.00" xmlns="http://www.w3.org/2000/svg" xmlns:xlink="http://www.w3.org/1999/xlink">
<g id="graph0" class="graph" transform="scale(1 1) rotate(0) translate(4 256)">
<title>g</title>
<g id="node1" class="node">
<title></title>
<ellipse fill="white" stroke="#666666" cx="3.5" cy="-126" rx="3.5" ry="3.5"/>
</g>
<!-- Alice.html -->
<g id="node2" class="node">
<title>Alice.html</title>
<g id="a_node2"><a xlink:href="Alice.html" xlink:title="&lt;p&gt;Hello, &lt;strong&gt;Alice&lt;/strong&gt;.&lt;/p&gt;\l">
<polygon fill="white" stroke="#b3b3b3" points="349.35,-252 161.79,-252 161.79,-216 349.35,-216 349.35,-252"/>
<text text-anchor="start" x="169.68" y="-231" font-family="Helvetica,sans-Serif" font-size="10.00">&lt;p&gt;Hello, &lt;strong&gt;Alice&lt;/strong&gt;.&lt;/p&gt;</text>
</a>
</g>
</g>
<!-- &#45;&gt;Alice.html -->
<g id="edge1" class="edge">
<title>&#45;&gt;Alice.html</title>
<path fill="none" stroke="#999999" d="M7.04,-127.47C14.92,-132.01 39.65,-146.07 61,-156 106.61,-177.23 159.69,-198.38 198.72,-213.28"/>
<polygon fill="#999999" stroke="#999999" points="205.84,-215.99 197.63,-216.48 202.33,-214.66 198.83,-213.33 198.83,-213.33 198.83,-213.33 202.33,-214.66 200.03,-210.17 205.84,-215.99 205.84,-215.99"/>
<text text-anchor="middle" x="83.78" y="-177" font-family="Helvetica,sans-Serif" font-size="10.00">Alice.html</text>
</g>
<!-- Bob.html -->
<g id="node3" class="node">
<title>Bob.html</title>
<g id="a_node3"><a xlink:href="Bob.html" xlink:title="&lt;p&gt;Hello, &lt;strong&gt;Bob&lt;/strong&gt;.&lt;/p&gt;\l">
<polygon fill="white" stroke="#b3b3b3" points="347.47,-144 163.67,-144 163.67,-108 347.47,-108 347.47,-144"/>
<text text-anchor="start" x="171.62" y="-123" font-family="Helvetica,sans-Serif" font-size="10.00">&lt;p&gt;Hello, &lt;strong&gt;Bob&lt;/strong&gt;.&lt;/p&gt;</text>
</a>
</g>
</g>
<!-- &#45;&gt;Bob.html -->
<g id="edge2" class="edge">
<title>&#45;&gt;Bob.html</title>
<path fill="none" stroke="#999999" d="M7.31,-126C22.21,-126 93.69,-126 155.99,-126"/>
<polygon fill="#999999" stroke="#999999" points="163.54,-126 156.04,-129.38 159.79,-126 156.04,-126 156.04,-126 156.04,-126 159.79,-126 156.04,-122.63 163.54,-126 163.54,-126"/>
<text text-anchor="middle" x="83.78" y="-129" font-family="Helvetica,sans-Serif" font-size="10.00">Bob.html</text>
</g>
<!-- Carol.html -->
<g id="node4" class="node">
<title>Carol.html</title>
<g id="a_node4"><a xlink:href="Carol.html" xlink:title="&lt;p&gt;Hello, &lt;strong&gt;Carol&lt;/strong&gt;.&lt;/p&gt;\l">
<polygon fill="white" stroke="#b3b3b3" points="350.57,-36 160.56,-36 160.56,0 350.57,0 350.57,-36"/>
<text text-anchor="start" x="168.57" y="-15" font-family="Helvetica,sans-Serif" font-size="10.00">&lt;p&gt;Hello, &lt;strong&gt;Carol&lt;/strong&gt;.&lt;/p&gt;</text>
</a>
</g>
</g>
<!-- &#45;&gt;Carol.html -->
<g id="edge3" class="edge">
<title>&#45;&gt;Carol.html</title>
<path fill="none" stroke="#999999" d="M7.04,-124.53C14.92,-119.99 39.65,-105.93 61,-96 106.61,-74.77 159.69,-53.62 198.72,-38.72"/>
<polygon fill="#999999" stroke="#999999" points="205.84,-36.01 200.03,-41.83 202.33,-37.34 198.83,-38.67 198.83,-38.67 198.83,-38.67 202.33,-37.34 197.63,-35.52 205.84,-36.01 205.84,-36.01"/>
<text text-anchor="middle" x="83.78" y="-99" font-family="Helvetica,sans-Serif" font-size="10.00">Carol.html</text>
</g>
</g>
</svg>
